{"title":"Star.Wars.The.Force.Awakens.2015.HDTS.MICRO-REPACK","uid":13200019,"size":573345621,"categoryP":"video","categoryS":"movies","magnet":"?xt=urn:btih:f81c84867386ebbe2aab335eaa50bddec7ee2e2b&amp;dn=Star.Wars.The.Force.Awakens.2015.HDTS.MICRO-REPACK&amp;tr=udp%3A%2F%2Ftracker.leechers-paradise.org%3A6969&amp;tr=udp%3A%2F%2Fzer0day.ch%3A1337&amp;tr=udp%3A%2F%2Fopen.demonii.com%3A1337&amp;tr=udp%3A%2F%2Ftracker.coppersurfer.tk%3A6969&amp;tr=udp%3A%2F%2Fexodus.desync.com%3A6969","seeders":0,"leechers":3,"uploader":"mr98321","files":2,"time":1452537608,"description":"MICRO-REPACK\r\n\r\nOriginal Sorce: Star Wars The Force Awakens 2015 HDTS XviD- INFERNO\r\n\r\nGeneral\r\nFormat                                   : MPEG-4\r\nFormat profile                           : Base Media / Version 2\r\nCodec ID                                 : mp42 (isom/iso2/avc1/mp41)\r\nFile size                                : 547 MiB\r\nDuration                                 : 2h 7mn\r\nOverall bit rate mode                    : Variable\r\nOverall bit rate                         : 602 Kbps\r\n\r\n\r\nVideo\r\nID                                       : 1\r\nFormat                                   : AVC\r\nFormat/Info                              : Advanced Video Codec\r\nFormat profile                           :   \r\nFormat settings, CABAC                   : Yes\r\nFormat settings, ReFrames                : 16 frames\r\nCodec ID                                 : avc1\r\nCodec ID/Info                            : Advanced Video Coding\r\nDuration                                 : 2h 7mn\r\nBit rate                                 : 433 Kbps\r\nWidth                                    : 720 pixels\r\nHeight                                   : 320 pixels\r\nDisplay aspect ratio                     : 2.25:1\r\nFrame rate mode                          : Constant\r\nFrame rate                               : 29.970 (30000/1001) fps\r\nColor space                              : YUV\r\nChroma subsampling                       : 4:2:0\r\nBit depth                                : 8 bits\r\nScan type                                : Progressive\r\nBits/(Pixel*Frame)                       : 0.063\r\nStream size                              : 394 MiB (72%)\r\n\r\n\r\nAudio\r\nID                                       : 2\r\nFormat                                   : AAC\r\nFormat/Info                              : Advanced Audio Codec\r\nFormat profile                           : LC\r\nCodec ID                                 : 40\r\nDuration                                 : 2h 7mn\r\nBit rate mode                            : Variable\r\nBit rate                                 : 160 Kbps\r\nChannel(s)                               : 2 channels\r\nChannel positions                        : Front: L R\r\nSampling rate                            : 44.1 KHz\r\nFrame rate                               : 43.066 fps (1024 spf)\r\nCompression mode                         : Lossy\r\nStream size                              : 146 MiB (27%)\r\nTitle                                    : Stereo / Stereo","torrent":{"xt":"urn:btih:f81c84867386ebbe2aab335eaa50bddec7ee2e2b","amp;dn":"Star.Wars.The.Force.Awakens.2015.HDTS.MICRO-REPACK","amp;tr":["udp%3A%2F%2Ftracker.leechers-paradise.org%3A6969","udp%3A%2F%2Fzer0day.ch%3A1337","udp%3A%2F%2Fopen.demonii.com%3A1337","udp%3A%2F%2Ftracker.coppersurfer.tk%3A6969","udp%3A%2F%2Fexodus.desync.com%3A6969"],"infoHash":"f81c84867386ebbe2aab335eaa50bddec7ee2e2b","infoHashBuffer":{"type":"Buffer","data":[248,28,132,134,115,134,235,190,42,171,51,94,170,80,189,222,199,238,46,43]},"announce":[],"urlList":[]}}